/* XPM */
static char *_38cf56bcabd4f61c9ac766e4c34695cdPHhdTIiakQKFHjC[] = {
/* columns rows colors chars-per-pixel */
"64 64 2 1 ",
"  c black",
". c #2502FE",
/* pixels */
"                                                                ",
" .............................................................. ",
" .                                                            . ",
" . .. .. .. .. .. .. .. .. .. .... .. .. .. .. .. .. .. .. .. . ",
" . .                                                        . . ",
" .                                                            . ",
" . .                                                        . . ",
" . .                                                        . . ",
" .                                                            . ",
" . .                                                        . . ",
" . .                                                        . . ",
" .                                                            . ",
" . .                                                        . . ",
" . .                                                        . . ",
" .                                                            . ",
" . .                                                        . . ",
" . .                                                        . . ",
" .                                                            . ",
" . .                                                        . . ",
" . .                                                        . . ",
" .                                                            . ",
" . .                                                        . . ",
" . .                                                        . . ",
" .                                                            . ",
" . .                                                        . . ",
" . .                                                        . . ",
" .                                                            . ",
" . .                                                        . . ",
" . .                                                        . . ",
" .                                                            . ",
" . .                                                        . . ",
" . .                                                        . . ",
" . .                                                        . . ",
" . .                                                        . . ",
" .                                                            . ",
" . .                                                        . . ",
" . .                                                        . . ",
" .                                                            . ",
" . .                                                        . . ",
" . .                                                        . . ",
" .                                                            . ",
" . .                                                        . . ",
" . .                                                        . . ",
" .                                                            . ",
" . .                                                        . . ",
" . .                                                        . . ",
" .                                                            . ",
" . .                                                        . . ",
" . .                                                        . . ",
" .                                                            . ",
" . .                                                        . . ",
" . .                                                        . . ",
" .                                                            . ",
" . .                                                        . . ",
" . .                                                        . . ",
" .                                                            . ",
" . .                                                        . . ",
" . .                                                        . . ",
" .                                                            . ",
" . .                                                        . . ",
" . .. .. .. .. .. .. .. .. .. .... .. .. .. .. .. .. .. .. .. . ",
" .                                                            . ",
" .............................................................. ",
"                                                                "
};
