/* XPM */
static char *result[] = {
/* columns rows colors chars-per-pixel */
"64 64 6 1 ",
"  c black",
". c blue",
"X c #FF002B",
"o c #66CCFF",
"O c #FCBAF8",
"+ c #EAC32A",
/* pixels */
"                                                                ",
" .............................................................. ",
" .                                                            . ",
" . .......................................................... . ",
" . ..                                                       . . ",
" . ...                                                      . . ",
" . .  .        X                       oo         XXX       . . ",
" . .   ..      XXX    OO       oo     oo        XX          . . ",
" . .     .       XXX   OO       o    oo   OO   XX           . . ",
" . .      .        XX    OO     o    o   OO  XX             . . ",
" . .       ..        X     OO   oo  o  OO   XX              . . ",
" . .         .       XX     OO   o    OO    X               . . ",
" . .          ..      X      OO     OO    XX                . . ",
" . .            .      X            O    XX                 . . ",
" . .            .      XX               XX                  . . ",
" . .            .                      XX                   . . ",
" . .            .                      X                    . . ",
" . .            .                                           . . ",
" . .            .     ++++++++++++++++++++++                . . ",
" . .            .     ++++++++++++++++++++++                . . ",
" . .            .       ++++++++++++++++++                  . . ",
" . .            .        ++++++++++++++++                   . . ",
" . .            .         ++++++++++++++                    . . ",
" . .            .          ++++++++++++                     . . ",
" . .            .           ++++++++++                      . . ",
" . .            .            ++++++++                       . . ",
" . .            .             ++++++                        . . ",
" . .            .              ++++                         . . ",
" . .            .              ++++                         . . ",
" . .            .             ++++++                        . . ",
" . .            .            ++++++++                       . . ",
" . .            .            ++++++++                       . . ",
" . .        ..  .            ++++++++                       . . ",
" . .         .  .             ++++++                        . . ",
" . .            .              ++++                         . . ",
" . .        .   .              ++++                         . . ",
" . .            .              ++++                         . . ",
" . .            .             ++++++                        . . ",
" . .            .            ++++++++                       . . ",
" . .            .           ++++++++++                      . . ",
" . .            .          ++++++++++++                     . . ",
" . .            .                                           . . ",
" . .            .                                           . . ",
" . .            .                                           . . ",
" . .            .                                           . . ",
" . .            .                                           . . ",
" . .            .                                           . . ",
" . .            .                                           . . ",
" . .            .                                           . . ",
" . .            .                                           . . ",
" . .            .                                           . . ",
" . .            .                                           . . ",
" . .            .                                           . . ",
" . .           ..                                           . . ",
" . .         ..                                             . . ",
" . .       ..                                               . . ",
" . .     ..                                                 . . ",
" . .   ..                                                   . . ",
" . . ..                                                     . . ",
" . ..                                                       . . ",
" . .......................................................... . ",
" .                                                            . ",
" .............................................................. ",
"                                                                "
};
